Coordinates
nRows=234
nColumns=2
inDegrees=yes
endheader
time	ankle_angle_r	
2.99395	  9.204665	
3.02722	  9.277344	
3.06048	  9.292603	
3.09375	  9.227662	
3.12702	  9.311864	
3.16028	  9.299664	
3.19355	  9.227372	
3.22681	  9.307861	
3.26008	  9.349249	
3.29335	  9.323120	
3.32661	  9.368896	
3.35988	  9.390056	
3.39315	  9.317412	
3.42641	  9.364024	
3.45968	  9.389476	
3.49294	  9.333313	
3.52621	  9.333217	
3.55948	  9.338379	
3.59274	  9.327667	
3.62601	  9.383057	
3.65927	  9.384155	
3.69254	  9.359283	
3.72581	  9.374640	
3.75907	  9.368896	
3.79234	  9.341765	
3.8256	  9.396220	
3.85887	  9.405543	
3.89214	  9.329346	
3.9254	  9.359961	
3.95867	  9.342379	
3.99194	  9.268601	
4.0252	  9.323120	
4.05847	  9.316411	
4.09173	  9.284150	
4.125	  9.338379	
4.15827	  9.314860	
4.19153	  9.254989	
4.2248	  9.292603	
4.25806	  9.254795	
4.29133	  9.238954	
4.3246	  9.239050	
4.35786	  9.307861	
4.39113	  9.292603	
4.4244	  9.292890	
4.45766	  9.293083	
4.49093	  9.246826	
4.52419	  9.278211	
4.55746	  9.300762	
4.59073	  9.231567	
4.62399	  9.285697	
4.65726	  9.301052	
4.69052	  9.255373	
4.72379	  9.253442	
4.75706	  9.323120	
4.79032	  9.299025	
4.82359	  9.279951	
4.85685	  9.268313	
4.89012	  9.188929	
4.92339	  9.298638	
4.95665	  9.256146	
4.98992	  9.290335	
5.02319	  9.298348	
5.05645	  9.262085	
5.08972	  9.226015	
5.12298	  9.220656	
5.15625	  9.267444	
5.18952	  9.180529	
5.22278	  9.241661	
5.25605	  9.297724	
5.28931	  9.246826	
5.32258	  9.257210	
5.35585	  9.251605	
5.38911	  9.216309	
5.42238	  9.210220	
5.45565	  9.237849	
5.48891	  9.187874	
5.52218	  9.253494	
5.55544	  9.227369	
5.58871	  9.170532	
5.62198	  9.242821	
5.65524	  9.246826	
5.68851	  9.220120	
5.72177	  9.246826	
5.75504	  9.292603	
5.78831	  9.282038	
5.82157	  9.280768	
5.85484	  9.258757	
5.8881	  9.246826	
5.92137	  9.234702	
5.95464	  9.259047	
5.9879	  9.203991	
6.02117	  9.249671	
6.05444	  9.320372	
6.0877	  9.262085	
6.12097	  9.307861	
6.15423	  9.338379	
6.1875	  9.249187	
6.22077	  9.325385	
6.25403	  9.357974	
6.2873	  9.364754	
6.32056	  9.384155	
6.35383	  9.296359	
6.3871	  9.323120	
6.42036	  9.341748	
6.45363	  9.382567	
6.4869	  9.352146	
6.52016	  9.324514	
6.55343	  9.367599	
6.58669	  9.338379	
6.61996	  9.370001	
6.65323	  9.306853	
6.68649	  9.276433	
6.71976	  9.368082	
6.75302	  9.352202	
6.78629	  9.337136	
6.81956	  9.353113	
6.85282	  9.337095	
6.88609	  9.338048	
6.91935	  9.338144	
6.95262	  9.307586	
6.98589	  9.277344	
7.01915	  9.353526	
7.05242	  9.323425	
7.08569	  9.231567	
7.11895	  9.292949	
7.15222	  9.248154	
7.18548	  9.201050	
7.21875	  9.276073	
7.25202	  9.262817	
7.28528	  9.277344	
7.31855	  9.261159	
7.35181	  9.217331	
7.38508	  9.217428	
7.41835	  9.262085	
7.45161	  9.214996	
7.48488	  9.201050	
7.51815	  9.216309	
7.55141	  9.205857	
7.58468	  9.243427	
7.61794	  9.275548	
7.65121	  9.263978	
7.68448	  9.307861	
7.71774	  9.321034	
7.75101	  9.325303	
7.78427	  9.325399	
7.81754	  9.356014	
7.85081	  9.284762	
7.88407	  9.328101	
7.91734	  9.328452	
7.9506	  9.335616	
7.98387	  9.341238	
8.01714	  9.356594	
8.0504	  9.338379	
8.08367	  9.311011	
8.11694	  9.341625	
8.1502	  9.311204	
8.18347	  9.338379	
8.21673	  9.326656	
8.25	  9.272985	
8.28327	  9.319390	
8.31653	  9.326946	
8.3498	  9.319197	
8.38306	  9.285383	
8.41633	  9.338379	
8.4496	  9.251040	
8.48286	  9.268724	
8.51613	  9.270898	
8.5494	  9.159777	
8.58266	  9.292603	
8.61593	  9.252692	
8.64919	  9.190584	
8.68246	  9.221198	
8.71573	  9.262085	
8.74899	  9.185791	
8.78226	  9.185791	
8.81552	  9.267362	
8.84879	  9.160646	
8.88206	  9.227249	
8.91532	  9.307861	
8.94859	  9.201050	
8.98185	  9.197311	
9.01512	  9.222165	
9.04839	  9.240123	
9.08165	  9.207100	
9.11492	  9.228602	
9.14819	  9.201050	
9.18145	  9.268425	
9.21472	  9.253263	
9.24798	  9.299136	
9.28125	  9.314491	
9.31452	  9.285875	
9.34778	  9.277344	
9.38105	  9.292603	
9.41431	  9.321896	
9.44758	  9.330234	
9.48085	  9.330331	
9.51411	  9.338379	
9.54738	  9.300458	
9.58065	  9.322863	
9.61391	  9.315458	
9.64718	  9.330943	
9.68044	  9.277021	
9.71371	  9.338379	
9.74698	  9.276635	
9.78024	  9.307861	
9.81351	  9.353638	
9.84677	  9.238552	
9.88004	  9.238456	
9.91331	  9.262085	
9.94657	  9.233437	
9.97984	  9.170532	
10.0131	  9.314363	
10.0464	  9.268490	
10.0796	  9.264728	
10.1129	  9.213472	
10.1462	  9.240711	
10.1794	  9.201050	
10.2127	  9.286681	
10.246	  9.256260	
10.2792	  9.250629	
10.3125	  9.246826	
10.3458	  9.181602	
10.379	  9.246826	
10.4123	  9.292603	
10.4456	  9.246826	
10.4788	  9.267048	
10.5121	  9.236618	
10.5454	  9.216309	
10.5786	  9.237111	
10.6119	  9.292603	
10.6452	  9.231567	
10.6784	  9.242258	
10.7117	  9.281815	
10.745	  9.255575	
